<svg width="16" height="16" viewBox="0 0 16 16" fill="none" xmlns="http://www.w3.org/2000/svg">
<path d="M14.8538 1.14628C14.8073 1.09979 14.7522 1.06291 14.6915 1.03775C14.6308 1.01259 14.5657 0.999634 14.5 0.999634C14.4343 0.999634 14.3692 1.01259 14.3085 1.03775C14.2478 1.06291 14.1927 1.09979 14.1462 1.14628L10.8713 4.4219L10.5356 4.08565C10.1601 3.71125 9.65151 3.501 9.12125 3.501C8.59099 3.501 8.08237 3.71125 7.70687 4.08565L6.25 5.54315L5.85375 5.14628C5.75993 5.05246 5.63268 4.99975 5.5 4.99975C5.36732 4.99975 5.24007 5.05246 5.14625 5.14628C5.05243 5.2401 4.99972 5.36735 4.99972 5.50003C4.99972 5.63271 5.05243 5.75996 5.14625 5.85378L5.54312 6.25003L4.08562 7.7069C3.89986 7.89263 3.7525 8.11312 3.65196 8.3558C3.55142 8.59849 3.49968 8.85859 3.49968 9.12128C3.49968 9.38396 3.55142 9.64407 3.65196 9.88675C3.7525 10.1294 3.89986 10.3499 4.08562 10.5357L4.42187 10.8713L1.14625 14.1463C1.09979 14.1927 1.06294 14.2479 1.0378 14.3086C1.01266 14.3693 0.999722 14.4343 0.999722 14.5C0.999722 14.5657 1.01266 14.6308 1.0378 14.6915C1.06294 14.7522 1.09979 14.8073 1.14625 14.8538C1.24007 14.9476 1.36732 15.0003 1.5 15.0003C1.5657 15.0003 1.63075 14.9874 1.69145 14.9622C1.75214 14.9371 1.80729 14.9002 1.85375 14.8538L5.12875 11.5782L5.46437 11.9144C5.6501 12.1002 5.8706 12.2475 6.11328 12.3481C6.35596 12.4486 6.61607 12.5003 6.87875 12.5003C7.14143 12.5003 7.40154 12.4486 7.64422 12.3481C7.8869 12.2475 8.1074 12.1002 8.29312 11.9144L9.75 10.4569L10.1462 10.8538C10.1927 10.9002 10.2479 10.9371 10.3086 10.9622C10.3692 10.9874 10.4343 11.0003 10.5 11.0003C10.5657 11.0003 10.6308 10.9874 10.6914 10.9622C10.7521 10.9371 10.8073 10.9002 10.8538 10.8538C10.9002 10.8073 10.9371 10.7522 10.9622 10.6915C10.9873 10.6308 11.0003 10.5657 11.0003 10.5C11.0003 10.4343 10.9873 10.3693 10.9622 10.3086C10.9371 10.2479 10.9002 10.1927 10.8538 10.1463L10.4569 9.75003L11.9144 8.29315C12.1001 8.10743 12.2475 7.88693 12.348 7.64425C12.4486 7.40157 12.5003 7.14146 12.5003 6.87878C12.5003 6.6161 12.4486 6.35599 12.348 6.1133C12.2475 5.87062 12.1001 5.65013 11.9144 5.4644L11.5781 5.12878L14.8538 1.85378C14.9002 1.80734 14.9371 1.7522 14.9623 1.6915C14.9874 1.6308 15.0004 1.56573 15.0004 1.50003C15.0004 1.43432 14.9874 1.36926 14.9623 1.30856C14.9371 1.24786 14.9002 1.19271 14.8538 1.14628ZM7.58562 11.2088C7.39811 11.3962 7.14385 11.5014 6.87875 11.5014C6.61365 11.5014 6.35939 11.3962 6.17187 11.2088L4.79312 9.82815C4.60573 9.64063 4.50046 9.38638 4.50046 9.12128C4.50046 8.85617 4.60573 8.60192 4.79312 8.4144L6.25 6.9569L9.04313 9.75003L7.58562 11.2088ZM11.2069 7.58753L9.75 9.04315L6.95687 6.25003L8.41437 4.79315C8.60189 4.60576 8.85615 4.50049 9.12125 4.50049C9.38635 4.50049 9.64061 4.60576 9.82812 4.79315L11.2069 6.16815C11.3002 6.26107 11.3743 6.37152 11.4248 6.49314C11.4754 6.61477 11.5014 6.74519 11.5014 6.8769C11.5014 7.00862 11.4754 7.13903 11.4248 7.26066C11.3743 7.38229 11.3002 7.49273 11.2069 7.58565V7.58753ZM5.52562 2.15815C5.48369 2.03234 5.49345 1.89502 5.55275 1.7764C5.61206 1.65779 5.71606 1.56759 5.84187 1.52565C5.96769 1.48371 6.10501 1.49347 6.22362 1.55278C6.34224 1.61209 6.43244 1.71609 6.47437 1.8419L6.97437 3.3419C6.99514 3.4042 7.00343 3.46997 6.99878 3.53547C6.99412 3.60097 6.97661 3.66492 6.94724 3.72365C6.91788 3.78238 6.87723 3.83476 6.82762 3.87778C6.77802 3.9208 6.72042 3.95364 6.65812 3.9744C6.53231 4.01634 6.39499 4.00658 6.27638 3.94727C6.21764 3.91791 6.16527 3.87726 6.12225 3.82765C6.07922 3.77804 6.04639 3.72045 6.02562 3.65815L5.52562 2.15815ZM1.52562 5.8419C1.54639 5.7796 1.57922 5.722 1.62224 5.6724C1.66526 5.62279 1.71764 5.58214 1.77637 5.55277C1.8351 5.5234 1.89905 5.50589 1.96455 5.50124C2.03005 5.49659 2.09583 5.50488 2.15812 5.52565L3.65812 6.02565C3.72042 6.04642 3.77802 6.07925 3.82762 6.12227C3.87723 6.1653 3.91788 6.21767 3.94724 6.2764C3.97661 6.33514 3.99412 6.39908 3.99878 6.46458C4.00343 6.53008 3.99514 6.59586 3.97437 6.65815C3.95361 6.72045 3.92078 6.77804 3.87775 6.82765C3.83473 6.87726 3.78236 6.91791 3.72362 6.94727C3.66489 6.97664 3.60095 6.99415 3.53545 6.9988C3.46995 7.00346 3.40417 6.99517 3.34187 6.9744L1.84187 6.4744C1.77958 6.45364 1.72198 6.42081 1.67237 6.37779C1.62276 6.33476 1.58211 6.28239 1.55274 6.22366C1.52337 6.16492 1.50586 6.10098 1.50121 6.03548C1.49656 5.96997 1.50485 5.9042 1.52562 5.8419ZM14.4744 10.1582C14.4536 10.2205 14.4208 10.278 14.3778 10.3277C14.3347 10.3773 14.2824 10.4179 14.2236 10.4473C14.1649 10.4767 14.101 10.4942 14.0354 10.4988C13.9699 10.5035 13.9042 10.4952 13.8419 10.4744L12.3419 9.9744C12.2161 9.93246 12.1121 9.84227 12.0528 9.72365C11.9934 9.60503 11.9837 9.46771 12.0256 9.3419C12.0676 9.21609 12.1578 9.11209 12.2764 9.05278C12.395 8.99347 12.5323 8.98371 12.6581 9.02565L14.1581 9.52565C14.2204 9.54641 14.278 9.57924 14.3276 9.62227C14.3772 9.66529 14.4179 9.71766 14.4473 9.7764C14.4766 9.83513 14.4941 9.89908 14.4988 9.96458C14.5034 10.0301 14.4951 10.0959 14.4744 10.1582ZM10.4744 13.8419C10.5163 13.9677 10.5066 14.105 10.4472 14.2236C10.3879 14.3423 10.2839 14.4325 10.1581 14.4744C10.0323 14.5163 9.89499 14.5066 9.77638 14.4473C9.65776 14.388 9.56756 14.284 9.52563 14.1582L9.02563 12.6582C8.98369 12.5323 8.99345 12.395 9.05276 12.2764C9.11206 12.1578 9.21606 12.0676 9.34188 12.0257C9.46769 11.9837 9.60501 11.9935 9.72362 12.0528C9.84224 12.1121 9.93244 12.2161 9.97437 12.3419L10.4744 13.8419Z" fill="#BCBCBC"/>
</svg>
