<svg width="19" height="17" viewBox="0 0 19 17" fill="none" xmlns="http://www.w3.org/2000/svg">
<path d="M14.8334 3.8125H14.8428M12 3.8125H12.0095M14.8334 13.1875H14.8428M12 13.1875H12.0095M3.50002 6.625H14.8334C15.7135 6.625 16.1535 6.625 16.5007 6.48228C16.9635 6.29197 17.3312 5.92696 17.5229 5.46753C17.6667 5.12296 17.6667 4.68614 17.6667 3.8125C17.6667 2.93886 17.6667 2.50204 17.5229 2.15747C17.3312 1.69804 16.9635 1.33303 16.5007 1.14272C16.1535 1 15.7135 1 14.8334 1H3.50002C2.61991 1 2.17986 1 1.83273 1.14272C1.3699 1.33303 1.00218 1.69804 0.810469 2.15747C0.666687 2.50204 0.666687 2.93886 0.666687 3.8125C0.666687 4.68614 0.666687 5.12296 0.810469 5.46753C1.00218 5.92696 1.3699 6.29197 1.83273 6.48228C2.17986 6.625 2.61991 6.625 3.50002 6.625ZM3.50002 16H14.8334C15.7135 16 16.1535 16 16.5007 15.8573C16.9635 15.667 17.3312 15.3019 17.5229 14.8426C17.6667 14.4979 17.6667 14.0612 17.6667 13.1875C17.6667 12.3138 17.6667 11.8771 17.5229 11.5324C17.3312 11.0731 16.9635 10.708 16.5007 10.5177C16.1535 10.375 15.7135 10.375 14.8334 10.375H3.50002C2.61991 10.375 2.17986 10.375 1.83273 10.5177C1.3699 10.708 1.00218 11.0731 0.810469 11.5324C0.666687 11.8771 0.666687 12.3138 0.666687 13.1875C0.666687 14.0612 0.666687 14.4979 0.810469 14.8426C1.00218 15.3019 1.3699 15.667 1.83273 15.8573C2.17986 16 2.61991 16 3.50002 16Z" stroke="#6147D1" stroke-linecap="round" stroke-linejoin="round"/>
</svg>
