<svg width="16" height="16" viewBox="0 0 16 16" fill="none" xmlns="http://www.w3.org/2000/svg">
<path d="M13.4131 12.4138C13.693 12.1341 13.8837 11.7778 13.9611 11.3898C14.0384 11.0017 13.999 10.5995 13.8477 10.2339C13.6963 9.86833 13.44 9.55584 13.1111 9.33598C12.7821 9.11612 12.3953 8.99877 11.9997 8.99877C11.604 8.99877 11.2173 9.11612 10.8883 9.33598C10.5594 9.55584 10.303 9.86833 10.1517 10.2339C10.0004 10.5995 9.96093 11.0017 10.0383 11.3898C10.1156 11.7778 10.3063 12.1341 10.5863 12.4138C10.0605 12.7492 9.67906 13.269 9.51688 13.8713C9.48273 13.9994 9.50089 14.1358 9.56734 14.2506C9.6338 14.3653 9.74312 14.449 9.87125 14.4831C9.91327 14.4942 9.95654 14.4999 10 14.5C10.1103 14.5 10.2174 14.4635 10.3048 14.3962C10.3922 14.329 10.4549 14.2347 10.4831 14.1281C10.66 13.4638 11.2837 13 12 13C12.7163 13 13.34 13.4638 13.5169 14.1281C13.5327 14.1927 13.5613 14.2535 13.6008 14.3069C13.6404 14.3603 13.6903 14.4052 13.7475 14.4391C13.8046 14.473 13.868 14.4952 13.9339 14.5043C13.9997 14.5135 14.0667 14.5094 14.131 14.4923C14.1952 14.4752 14.2554 14.4455 14.308 14.4049C14.3606 14.3642 14.4046 14.3135 14.4374 14.2557C14.4702 14.1979 14.4911 14.1341 14.499 14.0681C14.5068 14.0021 14.5014 13.9352 14.4831 13.8713C14.3208 13.2689 13.9391 12.7491 13.4131 12.4138ZM12 10C12.1978 10 12.3911 10.0587 12.5556 10.1685C12.72 10.2784 12.8482 10.4346 12.9239 10.6173C12.9996 10.8 13.0194 11.0011 12.9808 11.1951C12.9422 11.3891 12.847 11.5673 12.7071 11.7071C12.5673 11.847 12.3891 11.9422 12.1951 11.9808C12.0011 12.0194 11.8 11.9996 11.6173 11.9239C11.4346 11.8482 11.2784 11.72 11.1685 11.5556C11.0586 11.3911 11 11.1978 11 11C11 10.7348 11.1054 10.4804 11.2929 10.2929C11.4804 10.1054 11.7348 10 12 10ZM13.5 4.50001H8.20687L6.5 2.79313C6.40748 2.69987 6.29734 2.62593 6.17599 2.5756C6.05464 2.52528 5.9245 2.49959 5.79313 2.50001H2.5C2.23478 2.50001 1.98043 2.60536 1.79289 2.7929C1.60536 2.98043 1.5 3.23479 1.5 3.50001V12.5381C1.50017 12.7931 1.60147 13.0375 1.78169 13.2179C1.9619 13.3982 2.2063 13.4997 2.46125 13.5H7.535C7.66761 13.5 7.79479 13.4473 7.88855 13.3536C7.98232 13.2598 8.035 13.1326 8.035 13C8.035 12.8674 7.98232 12.7402 7.88855 12.6465C7.79479 12.5527 7.66761 12.5 7.535 12.5H2.5V5.50001H13.5V7.50001C13.5 7.63261 13.5527 7.75979 13.6464 7.85356C13.7402 7.94733 13.8674 8.00001 14 8.00001C14.1326 8.00001 14.2598 7.94733 14.3536 7.85356C14.4473 7.75979 14.5 7.63261 14.5 7.50001V5.50001C14.5 5.23479 14.3946 4.98043 14.2071 4.7929C14.0196 4.60536 13.7652 4.50001 13.5 4.50001ZM5.79313 3.50001L6.79313 4.50001H2.5V3.50001H5.79313Z" fill="#231A4D"/>
</svg>
