<svg width="40" height="40" viewBox="0 0 40 40" fill="none" xmlns="http://www.w3.org/2000/svg">
<rect y="-0.00012207" width="40" height="40" rx="10" fill="#FB0296"/>
<g clip-path="url(#clip0_1_733)">
<path d="M19.4973 8.08167C20.6402 7.04695 22.2159 6.72583 23.6829 7.01917C25.1535 7.31324 26.4875 8.21936 27.1457 9.60217C27.2092 9.73522 27.2748 9.94267 27.3411 10.1959C27.4064 10.4456 27.468 10.7238 27.5295 10.9938C27.5903 11.2603 27.6516 11.5217 27.7122 11.7272C27.7423 11.8295 27.7747 11.9254 27.8098 12.0045C27.8274 12.0442 27.8482 12.0848 27.8723 12.1217C27.8836 12.139 27.8975 12.1592 27.9153 12.1793L27.9797 12.2379L27.9827 12.2399C28.0447 12.2823 28.1226 12.3073 28.1819 12.3239C28.2484 12.3424 28.327 12.3588 28.4104 12.3746C28.5762 12.406 28.7874 12.4387 29.0032 12.4742C29.3935 12.5386 29.8084 12.6164 30.1291 12.7301L30.261 12.7809C32.0218 13.5297 32.9328 15.0771 33.0657 16.7535C33.1989 18.4357 32.546 20.2351 31.1848 21.4528L31.177 21.4596L22.1838 30.1813L22.0237 30.3375L22.1604 30.5143C22.3716 30.7874 22.6758 31.0605 22.9739 31.3248C23.2798 31.5962 23.586 31.8638 23.8352 32.1432C24.0854 32.4238 24.256 32.6928 24.3137 32.9567C24.3613 33.1747 24.3373 33.4102 24.177 33.6764L24.0989 33.7926C23.8539 34.1282 23.5231 34.2611 23.1672 34.2574C22.802 34.2536 22.407 34.1045 22.0764 33.8619C22.0767 33.8619 22.0512 33.8394 21.9895 33.7799C21.9328 33.7253 21.8573 33.6511 21.7688 33.5631C21.5917 33.387 21.3652 33.1581 21.1399 32.9283C20.9145 32.6985 20.6908 32.4676 20.5198 32.2877C20.4344 32.1979 20.3626 32.122 20.3108 32.0651C20.2849 32.0366 20.265 32.0139 20.2512 31.9977C20.2469 31.9926 20.2436 31.9886 20.2414 31.986C19.8257 31.2982 19.7098 30.254 19.9504 29.4869C20.2915 28.8768 21.0732 28.0138 22.094 27.0084C23.1183 25.9996 24.3555 24.8735 25.5686 23.7526C26.7788 22.6344 27.9654 21.5212 28.8762 20.5465C29.3315 20.0593 29.7226 19.6019 30.0149 19.192C30.3027 18.7884 30.5134 18.4057 30.5774 18.0719C30.8243 16.7777 30.469 15.7342 29.6975 15.1637C28.9295 14.5958 27.8222 14.5512 26.677 15.0963L26.6643 15.1022L26.6516 15.11C26.0942 15.4599 25.3379 16.1785 24.5041 17.0416C23.6647 17.9107 22.7245 18.9504 21.7991 19.9606C20.8712 20.9733 19.9575 21.9561 19.1633 22.7203C18.7662 23.1025 18.4027 23.4265 18.0852 23.6705C17.7627 23.9184 17.507 24.0682 17.3235 24.1246C16.5003 24.3762 15.6841 23.6339 15.7825 22.7574V22.7565C15.786 22.7251 15.8073 22.6585 15.8684 22.5485C15.9272 22.4426 16.013 22.3139 16.1262 22.1647C16.3525 21.8665 16.6737 21.5018 17.0647 21.0885C17.846 20.2625 18.8886 19.2609 19.967 18.2418C21.0432 17.2249 22.1558 16.1895 23.0676 15.3033C23.9715 14.4249 24.7054 13.6676 25.0061 13.2115L25.0129 13.2018L25.0188 13.191C25.3941 12.4808 25.4493 11.7871 25.2707 11.1823C25.0932 10.5808 24.6894 10.0845 24.175 9.75452C23.1468 9.09508 21.6499 9.08243 20.5481 10.2155L9.25219 21.3883C8.75244 21.6007 8.2628 21.3893 7.96117 20.9752C7.65118 20.5492 7.59121 19.9776 7.92113 19.5573L19.4973 8.08167Z" fill="white" stroke="#FB0296" stroke-width="0.5"/>
<path d="M21.9113 11.1194C22.6225 10.8969 23.0693 11.0586 23.2961 11.343C23.5366 11.6451 23.6083 12.1787 23.3644 12.8459C22.254 14.241 20.6621 15.6265 19.0734 17.0354C17.4835 18.4455 15.8952 19.8812 14.8693 21.343C13.8983 22.7279 14.0395 24.124 14.8283 24.9856C15.6121 25.8416 16.9806 26.1065 18.3195 25.3518L18.3478 25.3352L18.3713 25.3127L27.3547 16.5413C28.0008 16.4011 28.4804 16.5039 28.7394 16.7366C28.9884 16.9605 29.1142 17.3822 28.8596 18.0725V18.0735C28.7644 18.3324 28.5982 18.5079 28.3996 18.6721C28.2891 18.7635 28.2034 18.8242 28.0852 18.9192C27.9795 19.004 27.8697 19.1 27.7766 19.2141L27.633 19.3899C26.7986 20.3843 25.0366 22.2752 23.2209 24.0364C22.2576 24.9707 21.2832 25.8653 20.4289 26.5686C19.5645 27.2802 18.8524 27.7703 18.4055 27.929C15.756 28.8682 13.5127 27.6271 12.4387 25.6692C11.363 23.7079 11.4742 21.0492 13.5549 19.1663L13.5607 19.1604L21.9113 11.1194Z" fill="white" stroke="#FB0296" stroke-width="0.5"/>
</g>
<defs>
<clipPath id="clip0_1_733">
<rect width="25.8824" height="27.8431" fill="white" transform="translate(7.45081 6.6665)"/>
</clipPath>
</defs>
</svg>
