<svg width="16" height="16" viewBox="0 0 16 16" fill="none" xmlns="http://www.w3.org/2000/svg">
<path d="M4 6.5625V2.5C4 2.36739 3.94732 2.24021 3.85355 2.14645C3.75979 2.05268 3.63261 2 3.5 2C3.36739 2 3.24022 2.05268 3.14645 2.14645C3.05268 2.24021 3 2.36739 3 2.5V6.5625C2.56979 6.67265 2.18848 6.92285 1.91618 7.27365C1.64388 7.62446 1.49608 8.05591 1.49608 8.5C1.49608 8.94409 1.64388 9.37554 1.91618 9.72635C2.18848 10.0771 2.56979 10.3273 3 10.4375V13.5C3 13.6326 3.05268 13.7598 3.14645 13.8536C3.24022 13.9473 3.36739 14 3.5 14C3.63261 14 3.75979 13.9473 3.85355 13.8536C3.94732 13.7598 4 13.6326 4 13.5V10.4375C4.43021 10.3273 4.81152 10.0771 5.08382 9.72635C5.35612 9.37554 5.50392 8.94409 5.50392 8.5C5.50392 8.05591 5.35612 7.62446 5.08382 7.27365C4.81152 6.92285 4.43021 6.67265 4 6.5625ZM3.5 9.5C3.30222 9.5 3.10888 9.44135 2.94443 9.33147C2.77998 9.22159 2.65181 9.06541 2.57612 8.88268C2.50043 8.69996 2.48063 8.49889 2.51921 8.30491C2.5578 8.11093 2.65304 7.93275 2.79289 7.79289C2.93275 7.65304 3.11093 7.5578 3.30491 7.51921C3.49889 7.48063 3.69996 7.50043 3.88268 7.57612C4.06541 7.65181 4.22159 7.77998 4.33147 7.94443C4.44135 8.10888 4.5 8.30222 4.5 8.5C4.5 8.76522 4.39464 9.01957 4.20711 9.20711C4.01957 9.39464 3.76522 9.5 3.5 9.5ZM8.5 3.5625V2.5C8.5 2.36739 8.44732 2.24021 8.35355 2.14645C8.25979 2.05268 8.13261 2 8 2C7.86739 2 7.74021 2.05268 7.64645 2.14645C7.55268 2.24021 7.5 2.36739 7.5 2.5V3.5625C7.06979 3.67265 6.68848 3.92285 6.41618 4.27365C6.14388 4.62446 5.99608 5.05591 5.99608 5.5C5.99608 5.94409 6.14388 6.37554 6.41618 6.72635C6.68848 7.07715 7.06979 7.32735 7.5 7.4375V13.5C7.5 13.6326 7.55268 13.7598 7.64645 13.8536C7.74021 13.9473 7.86739 14 8 14C8.13261 14 8.25979 13.9473 8.35355 13.8536C8.44732 13.7598 8.5 13.6326 8.5 13.5V7.4375C8.93021 7.32735 9.31152 7.07715 9.58382 6.72635C9.85612 6.37554 10.0039 5.94409 10.0039 5.5C10.0039 5.05591 9.85612 4.62446 9.58382 4.27365C9.31152 3.92285 8.93021 3.67265 8.5 3.5625ZM8 6.5C7.80222 6.5 7.60888 6.44135 7.44443 6.33147C7.27998 6.22159 7.15181 6.06541 7.07612 5.88268C7.00043 5.69996 6.98063 5.49889 7.01921 5.30491C7.0578 5.11093 7.15304 4.93275 7.29289 4.79289C7.43275 4.65304 7.61093 4.5578 7.80491 4.51921C7.99889 4.48063 8.19996 4.50043 8.38268 4.57612C8.56541 4.65181 8.72159 4.77998 8.83147 4.94443C8.94135 5.10888 9 5.30222 9 5.5C9 5.76522 8.89464 6.01957 8.70711 6.20711C8.51957 6.39464 8.26522 6.5 8 6.5ZM14.5 10.5C14.4996 10.0566 14.3521 9.62586 14.0807 9.27525C13.8092 8.92464 13.4292 8.67397 13 8.5625V2.5C13 2.36739 12.9473 2.24021 12.8536 2.14645C12.7598 2.05268 12.6326 2 12.5 2C12.3674 2 12.2402 2.05268 12.1464 2.14645C12.0527 2.24021 12 2.36739 12 2.5V8.5625C11.5698 8.67265 11.1885 8.92285 10.9162 9.27365C10.6439 9.62446 10.4961 10.0559 10.4961 10.5C10.4961 10.9441 10.6439 11.3755 10.9162 11.7263C11.1885 12.0771 11.5698 12.3273 12 12.4375V13.5C12 13.6326 12.0527 13.7598 12.1464 13.8536C12.2402 13.9473 12.3674 14 12.5 14C12.6326 14 12.7598 13.9473 12.8536 13.8536C12.9473 13.7598 13 13.6326 13 13.5V12.4375C13.4292 12.326 13.8092 12.0754 14.0807 11.7247C14.3521 11.3741 14.4996 10.9434 14.5 10.5ZM12.5 11.5C12.3022 11.5 12.1089 11.4414 11.9444 11.3315C11.78 11.2216 11.6518 11.0654 11.5761 10.8827C11.5004 10.7 11.4806 10.4989 11.5192 10.3049C11.5578 10.1109 11.653 9.93275 11.7929 9.79289C11.9327 9.65304 12.1109 9.5578 12.3049 9.51921C12.4989 9.48063 12.7 9.50043 12.8827 9.57612C13.0654 9.65181 13.2216 9.77998 13.3315 9.94443C13.4414 10.1089 13.5 10.3022 13.5 10.5C13.5 10.7652 13.3946 11.0196 13.2071 11.2071C13.0196 11.3946 12.7652 11.5 12.5 11.5Z" fill="#BCBCBC"/>
</svg>
