<svg width="17" height="16" viewBox="0 0 17 16" fill="none" xmlns="http://www.w3.org/2000/svg">
<path d="M11.1925 4.95234C10.8837 4.64345 10.7292 4.48901 10.6713 4.31092C10.6204 4.15426 10.6204 3.98551 10.6713 3.82885C10.7292 3.65076 10.8837 3.49632 11.1925 3.18743L13.4064 0.973533C12.819 0.707838 12.1667 0.559937 11.48 0.559937C8.89539 0.559937 6.8001 2.65521 6.8001 5.23987C6.8001 5.62287 6.84612 5.99513 6.93293 6.35142C7.02583 6.73295 7.07232 6.92371 7.06413 7.04422C7.05547 7.17042 7.03667 7.23757 6.97849 7.34982C6.92287 7.45706 6.8164 7.56353 6.60342 7.77655L1.7302 12.6498C1.08403 13.2959 1.08403 14.3436 1.7302 14.9897C2.37636 15.6359 3.424 15.6359 4.07016 14.9897L8.94335 10.1165C9.15637 9.9035 9.26284 9.79703 9.37009 9.74149C9.4824 9.68331 9.54948 9.66451 9.67569 9.65585C9.79619 9.64758 9.98698 9.69407 10.3685 9.78697C10.7248 9.87378 11.0971 9.9198 11.48 9.9198C14.0647 9.9198 16.16 7.82452 16.16 5.23987C16.16 4.55316 16.0121 3.90099 15.7464 3.3135L13.5325 5.5274C13.2236 5.83629 13.0692 5.99072 12.891 6.04859C12.7344 6.09949 12.5657 6.09949 12.409 6.04859C12.2309 5.99072 12.0765 5.83629 11.7676 5.5274L11.1925 4.95234Z" stroke="#6147D1" stroke-linecap="round" stroke-linejoin="round"/>
</svg>
